<svg width="24" height="24" viewBox="0 0 24 24" fill="none" xmlns="http://www.w3.org/2000/svg">
<g id="system-uicons:bell-ringing">
<path id="Vector" d="M20 5.14244C19.6949 4.07501 19.3143 3.31387 18.8572 2.85672C18.4 2.39958 17.6389 2.01901 16.5714 1.71387M4.10059 5.14244C4.33944 4.07501 4.68573 3.31387 5.14287 2.85672C5.60001 2.39958 6.39544 2.01901 7.52916 1.71387M14.8572 19.4282C14.0949 20.571 13.1429 21.1424 12 21.1424C10.8572 21.1424 9.90516 20.571 9.14287 19.4282M17.8114 17.7139H6.18859C5.85469 17.714 5.52673 17.6255 5.23824 17.4574C4.94975 17.2893 4.71107 17.0476 4.5466 16.757C4.38213 16.4664 4.29777 16.1374 4.30213 15.8035C4.3065 15.4696 4.39943 15.1429 4.57144 14.8567C5.69308 12.9873 6.28562 10.8482 6.28573 8.66815V7.42815C6.28573 6.21573 6.76736 5.05297 7.62467 4.19566C8.48198 3.33836 9.64474 2.85672 10.8572 2.85672H13.1429C14.3553 2.85672 15.5181 3.33836 16.3754 4.19566C17.2327 5.05297 17.7143 6.21573 17.7143 7.42815V8.66815C17.7143 10.8476 18.3063 12.9882 19.4286 14.8567C19.6006 15.1429 19.6935 15.4696 19.6979 15.8035C19.7023 16.1374 19.6179 16.4664 19.4534 16.757C19.289 17.0476 19.0503 17.2893 18.7618 17.4574C18.4733 17.6255 18.1453 17.714 17.8114 17.7139Z" stroke="#14171A" stroke-linecap="round" stroke-linejoin="round"/>
</g>
</svg>
