<svg width="36" height="37" viewBox="0 0 36 37" fill="none" xmlns="http://www.w3.org/2000/svg">
<g id="material-symbols:cancel-outline">
<path id="Vector" d="M12.6 26.244L18 20.8689L23.4 26.244L25.5 24.1536L20.1 18.7785L25.5 13.4034L23.4 11.3131L18 16.6882L12.6 11.3131L10.5 13.4034L15.9 18.7785L10.5 24.1536L12.6 26.244ZM18 33.7094C15.925 33.7094 13.975 33.3172 12.15 32.5329C10.325 31.7485 8.7375 30.6849 7.3875 29.3421C6.0375 27.9984 4.969 26.4182 4.182 24.6016C3.395 22.785 3.001 20.844 3 18.7785C3 16.7131 3.394 14.7721 4.182 12.9555C4.97 11.1389 6.0385 9.55872 7.3875 8.21494C8.7375 6.87116 10.325 5.80758 12.15 5.02421C13.975 4.24084 15.925 3.84865 18 3.84766C20.075 3.84766 22.025 4.23984 23.85 5.02421C25.675 5.80858 27.2625 6.87215 28.6125 8.21494C29.9625 9.55872 31.0315 11.1389 31.8195 12.9555C32.6075 14.7721 33.001 16.7131 33 18.7785C33 20.844 32.606 22.785 31.818 24.6016C31.03 26.4182 29.9615 27.9984 28.6125 29.3421C27.2625 30.6859 25.675 31.75 23.85 32.5343C22.025 33.3187 20.075 33.7104 18 33.7094ZM18 30.7232C21.35 30.7232 24.1875 29.5661 26.5125 27.2518C28.8375 24.9375 30 22.1131 30 18.7785C30 15.444 28.8375 12.6195 26.5125 10.3053C24.1875 7.99097 21.35 6.83383 18 6.83383C14.65 6.83383 11.8125 7.99097 9.4875 10.3053C7.1625 12.6195 6 15.444 6 18.7785C6 22.1131 7.1625 24.9375 9.4875 27.2518C11.8125 29.5661 14.65 30.7232 18 30.7232Z" fill="#14171A"/>
</g>
</svg>
