<svg width="24" height="24" viewBox="0 0 24 24" fill="none" xmlns="http://www.w3.org/2000/svg">
<g id="fluent:cart-20-regular">
<path id="Vector" d="M3.59641 4.19473C3.59641 4.0356 3.65963 3.88298 3.77215 3.77046C3.88467 3.65794 4.03728 3.59473 4.19641 3.59473H4.72201C5.59441 3.59473 6.09601 4.16233 6.38641 4.72873C6.58441 5.11633 6.72721 5.58913 6.84601 5.99953H19.2C19.3854 5.99958 19.5683 6.0426 19.7343 6.12522C19.9003 6.20783 20.0449 6.32779 20.1568 6.47568C20.2686 6.62357 20.3447 6.79536 20.379 6.97759C20.4132 7.15981 20.4048 7.3475 20.3544 7.52593L18.5592 13.8559C18.4164 14.3581 18.1137 14.8001 17.6971 15.1147C17.2804 15.4294 16.7725 15.5996 16.2504 15.5995H10.1556C9.62914 15.5997 9.11722 15.4268 8.69872 15.1074C8.28021 14.788 7.97834 14.3398 7.83961 13.8319L7.06921 11.0059C7.0648 10.9933 7.0608 10.9805 7.05721 10.9675L5.82001 6.77113L5.70001 6.36673C5.58001 5.95153 5.47441 5.58433 5.31601 5.27593C5.12521 4.90393 4.95001 4.79593 4.72081 4.79593H4.19521C4.03608 4.79593 3.88347 4.73271 3.77095 4.62019C3.65843 4.50767 3.59521 4.35506 3.59521 4.19593L3.59641 4.19473ZM8.21401 10.6435L8.99761 13.5187C9.06709 13.7725 9.21807 13.9965 9.42731 14.1561C9.63656 14.3157 9.89246 14.4021 10.1556 14.4019H16.2516C16.5125 14.4017 16.7663 14.3164 16.9744 14.1589C17.1825 14.0015 17.3336 13.7805 17.4048 13.5295L19.2 7.19953H7.20001L8.21401 10.6435ZM12 18.5983C12 19.0757 11.8104 19.5336 11.4728 19.8711C11.1352 20.2087 10.6774 20.3983 10.2 20.3983C9.72262 20.3983 9.26479 20.2087 8.92722 19.8711C8.58966 19.5336 8.40001 19.0757 8.40001 18.5983C8.40001 18.1209 8.58966 17.6631 8.92722 17.3255C9.26479 16.988 9.72262 16.7983 10.2 16.7983C10.6774 16.7983 11.1352 16.988 11.4728 17.3255C11.8104 17.6631 12 18.1209 12 18.5983ZM10.8 18.5983C10.8 18.4392 10.7368 18.2866 10.6243 18.1741C10.5118 18.0615 10.3591 17.9983 10.2 17.9983C10.0409 17.9983 9.88827 18.0615 9.77575 18.1741C9.66323 18.2866 9.60001 18.4392 9.60001 18.5983C9.60001 18.7575 9.66323 18.9101 9.77575 19.0226C9.88827 19.1351 10.0409 19.1983 10.2 19.1983C10.3591 19.1983 10.5118 19.1351 10.6243 19.0226C10.7368 18.9101 10.8 18.7575 10.8 18.5983ZM18 18.5983C18 19.0757 17.8104 19.5336 17.4728 19.8711C17.1352 20.2087 16.6774 20.3983 16.2 20.3983C15.7226 20.3983 15.2648 20.2087 14.9272 19.8711C14.5897 19.5336 14.4 19.0757 14.4 18.5983C14.4 18.1209 14.5897 17.6631 14.9272 17.3255C15.2648 16.988 15.7226 16.7983 16.2 16.7983C16.6774 16.7983 17.1352 16.988 17.4728 17.3255C17.8104 17.6631 18 18.1209 18 18.5983ZM16.8 18.5983C16.8 18.4392 16.7368 18.2866 16.6243 18.1741C16.5118 18.0615 16.3591 17.9983 16.2 17.9983C16.0409 17.9983 15.8883 18.0615 15.7757 18.1741C15.6632 18.2866 15.6 18.4392 15.6 18.5983C15.6 18.7575 15.6632 18.9101 15.7757 19.0226C15.8883 19.1351 16.0409 19.1983 16.2 19.1983C16.3591 19.1983 16.5118 19.1351 16.6243 19.0226C16.7368 18.9101 16.8 18.7575 16.8 18.5983Z" fill="#14171A"/>
</g>
</svg>
