<svg width="24" height="24" viewBox="0 0 24 24" fill="none" xmlns="http://www.w3.org/2000/svg">
<g id="solar:user-speak-outline">
<g id="Group">
<path id="Vector" fill-rule="evenodd" clip-rule="evenodd" d="M10.0001 1.25C8.74028 1.25 7.5321 1.75044 6.6413 2.64124C5.7505 3.53204 5.25006 4.74022 5.25006 6C5.25006 7.25978 5.7505 8.46796 6.6413 9.35876C7.5321 10.2496 8.74028 10.75 10.0001 10.75C11.2598 10.75 12.468 10.2496 13.3588 9.35876C14.2496 8.46796 14.7501 7.25978 14.7501 6C14.7501 4.74022 14.2496 3.53204 13.3588 2.64124C12.468 1.75044 11.2598 1.25 10.0001 1.25ZM6.75006 6C6.75006 5.13805 7.09247 4.3114 7.70196 3.7019C8.31145 3.09241 9.1381 2.75 10.0001 2.75C10.862 2.75 11.6887 3.09241 12.2982 3.7019C12.9076 4.3114 13.2501 5.13805 13.2501 6C13.2501 6.86195 12.9076 7.6886 12.2982 8.2981C11.6887 8.90759 10.862 9.25 10.0001 9.25C9.1381 9.25 8.31145 8.90759 7.70196 8.2981C7.09247 7.6886 6.75006 6.86195 6.75006 6ZM10.0001 12.25C7.68706 12.25 5.55506 12.776 3.97606 13.664C2.42006 14.54 1.25006 15.866 1.25006 17.5V17.602C1.24906 18.764 1.24806 20.222 2.52706 21.264C3.15606 21.776 4.03706 22.141 5.22706 22.381C6.41906 22.623 7.97406 22.75 10.0001 22.75C12.0261 22.75 13.5801 22.623 14.7741 22.381C15.9641 22.141 16.8441 21.776 17.4741 21.264C18.7531 20.222 18.7511 18.764 18.7501 17.602V17.5C18.7501 15.866 17.5801 14.54 16.0251 13.664C14.4451 12.776 12.3141 12.25 10.0001 12.25ZM2.75006 17.5C2.75006 16.649 3.37206 15.725 4.71106 14.972C6.02706 14.232 7.89506 13.75 10.0011 13.75C12.1051 13.75 13.9731 14.232 15.2891 14.972C16.6291 15.725 17.2501 16.649 17.2501 17.5C17.2501 18.808 17.2101 19.544 16.5261 20.1C16.1561 20.402 15.5361 20.697 14.4761 20.911C13.4191 21.125 11.9741 21.25 10.0001 21.25C8.02606 21.25 6.58006 21.125 5.52406 20.911C4.46406 20.697 3.84406 20.402 3.47406 20.101C2.79006 19.544 2.75006 18.808 2.75006 17.5Z" fill="#14171A"/>
</g>
</g>
</svg>
